<svg width="20" height="20" viewBox="0 0 20 20" fill="none" xmlns="http://www.w3.org/2000/svg">
<path fill-rule="evenodd" clip-rule="evenodd" d="M5.00008 1.6665C4.11603 1.6665 3.26818 2.01769 2.64306 2.64281C2.01794 3.26794 1.66675 4.11578 1.66675 4.99984V14.9998C1.66675 15.8839 2.01794 16.7317 2.64306 17.3569C3.26818 17.982 4.11603 18.3332 5.00008 18.3332H15.0001C15.8841 18.3332 16.732 17.982 17.3571 17.3569C17.9822 16.7317 18.3334 15.8839 18.3334 14.9998V4.99984C18.3334 4.11578 17.9822 3.26794 17.3571 2.64281C16.732 2.01769 15.8841 1.6665 15.0001 1.6665H5.00008ZM3.33341 4.99984C3.33341 4.55781 3.50901 4.13389 3.82157 3.82133C4.13413 3.50877 4.55805 3.33317 5.00008 3.33317H15.0001C15.4421 3.33317 15.866 3.50877 16.1786 3.82133C16.4912 4.13389 16.6667 4.55781 16.6667 4.99984V14.9998C16.6667 15.4419 16.4912 15.8658 16.1786 16.1783C15.866 16.4909 15.4421 16.6665 15.0001 16.6665H5.00008C4.55805 16.6665 4.13413 16.4909 3.82157 16.1783C3.50901 15.8658 3.33341 15.4419 3.33341 14.9998V4.99984ZM5.83341 5.83317C5.6124 5.83317 5.40044 5.92097 5.24416 6.07725C5.08788 6.23353 5.00008 6.44549 5.00008 6.6665C5.00008 6.88752 5.08788 7.09948 5.24416 7.25576C5.40044 7.41204 5.6124 7.49984 5.83341 7.49984V12.4998C5.6124 12.4998 5.40044 12.5876 5.24416 12.7439C5.08788 12.9002 5.00008 13.1122 5.00008 13.3332C5.00008 13.5542 5.08788 13.7661 5.24416 13.9224C5.40044 14.0787 5.6124 14.1665 5.83341 14.1665H7.50008C7.7211 14.1665 7.93306 14.0787 8.08934 13.9224C8.24562 13.7661 8.33341 13.5542 8.33341 13.3332C8.33341 13.1122 8.24562 12.9002 8.08934 12.7439C7.93306 12.5876 7.7211 12.4998 7.50008 12.4998V9.419L9.30675 12.129C9.38259 12.2435 9.4856 12.3374 9.60658 12.4024C9.72756 12.4674 9.86275 12.5014 10.0001 12.5014C10.1374 12.5014 10.2726 12.4674 10.3936 12.4024C10.5146 12.3374 10.6176 12.2435 10.6934 12.129L12.5001 9.419V12.4998C12.2791 12.4998 12.0671 12.5876 11.9108 12.7439C11.7545 12.9002 11.6667 13.1122 11.6667 13.3332C11.6667 13.5542 11.7545 13.7661 11.9108 13.9224C12.0671 14.0787 12.2791 14.1665 12.5001 14.1665H14.1667C14.3878 14.1665 14.5997 14.0787 14.756 13.9224C14.9123 13.7661 15.0001 13.5542 15.0001 13.3332C15.0001 13.1122 14.9123 12.9002 14.756 12.7439C14.5997 12.5876 14.3878 12.4998 14.1667 12.4998V7.49984C14.3878 7.49984 14.5997 7.41204 14.756 7.25576C14.9123 7.09948 15.0001 6.88752 15.0001 6.6665C15.0001 6.44549 14.9123 6.23353 14.756 6.07725C14.5997 5.92097 14.3878 5.83317 14.1667 5.83317H13.3334C13.1963 5.83315 13.0612 5.86699 12.9403 5.93167C12.8193 5.99636 12.7162 6.08991 12.6401 6.204L10.0001 10.164L7.36008 6.204C7.28396 6.08991 7.18085 5.99636 7.0599 5.93167C6.93895 5.86699 6.80391 5.83315 6.66675 5.83317H5.83341Z" fill="#C9C7C5"/>
</svg>
