<svg width="20" height="20" viewBox="0 0 20 20" fill="none" xmlns="http://www.w3.org/2000/svg">
<g id="Frame">
<path id="Vector" d="M7.72498 11.5832C7.14998 11.5832 6.69165 11.1332 6.69165 10.5582C6.69165 9.99157 7.15832 9.5249 7.71665 9.5249C8.27498 9.5249 8.74996 10.0082 8.74162 10.5666C8.74162 11.1249 8.28332 11.5832 7.72498 11.5832Z" fill="#C9C7C5"/>
<path id="Vector_2" d="M12.3 11.5833C11.7333 11.5833 11.2667 11.1083 11.275 10.55C11.2833 10 11.75 9.53334 12.3 9.52501C12.8583 9.51668 13.3333 9.99168 13.3333 10.5583C13.325 11.1333 12.875 11.5917 12.3 11.5833Z" fill="#C9C7C5"/>
<path id="Vector_3" d="M10.1749 14.0751C9.34157 14.0584 8.66657 13.9834 8.04989 13.6584C7.87489 13.5668 7.72489 13.4501 7.57489 13.3251C7.44989 13.2251 7.43322 13.0834 7.53322 12.9668C7.64155 12.8418 7.77489 12.8418 7.89989 12.9418C8.4249 13.3918 9.06657 13.5001 9.71657 13.5418C10.3582 13.5918 10.9916 13.5168 11.5916 13.2668C11.7666 13.1918 11.9332 13.0751 12.0916 12.9668C12.2499 12.8584 12.3916 12.8418 12.4916 12.9584C12.5999 13.0751 12.5749 13.2334 12.4249 13.3668C12.0499 13.7001 11.5916 13.8668 11.1082 13.9584C10.7416 14.0251 10.3832 14.0501 10.1749 14.0751Z" fill="#C9C7C5"/>
<path id="Vector_4" d="M17.0667 6.9835C16.5417 6.60016 15.8834 6.3835 15.2251 6.3835C14.8917 6.3835 14.5667 6.4335 14.2584 6.5335C13.2501 6.0085 12.1167 5.7085 10.8251 5.5835L11.1167 4.31683L12.8251 4.66683C12.9167 5.2085 13.3834 5.61683 13.9501 5.61683C14.5834 5.61683 15.0917 5.1085 15.0917 4.47516C15.0917 3.84183 14.5751 3.3335 13.9417 3.3335C13.5417 3.3335 13.1917 3.54183 12.9834 3.8585L10.8834 3.42516C10.6584 3.3835 10.4417 3.51683 10.3917 3.74183L9.97506 5.5585L9.32506 5.57516H9.29172H9.25839C7.99171 5.67516 6.81671 5.99183 5.77504 6.54183C5.45838 6.4335 5.13338 6.3835 4.80004 6.3835C3.77504 6.3835 2.80838 6.89183 2.21671 7.74183C1.73338 8.44183 1.55838 9.32516 1.72504 10.1585C1.84171 10.7252 2.11671 11.2418 2.50004 11.6585C2.55838 12.4752 2.83338 13.2502 3.34171 13.9835C4.12504 15.1168 5.24171 15.9418 6.76671 16.4918C7.79171 16.8585 8.86672 17.0502 9.96673 17.0502C10.4917 17.0502 11.0334 17.0085 11.5751 16.9252C13.0334 16.6918 14.3001 16.1752 15.3334 15.3752C16.6667 14.3502 17.3917 13.1085 17.5001 11.6835C18.0167 11.1418 18.3167 10.4252 18.3501 9.6585C18.3917 8.59183 17.9084 7.60016 17.0667 6.9835ZM15.9917 10.7668C15.9084 10.8168 15.8334 10.8585 15.8417 10.9835C15.9501 12.3085 15.3251 13.2668 14.3251 14.0418C13.4417 14.7252 12.4167 15.0918 11.3251 15.2668C10.8751 15.3418 10.4251 15.3752 9.97506 15.3752C9.08339 15.3752 8.20838 15.2252 7.34171 14.9168C6.29171 14.5418 5.36671 13.9752 4.72504 13.0335C4.31671 12.4418 4.10838 11.7918 4.18338 11.0668C4.19171 10.9168 4.15004 10.8335 4.01671 10.7585C3.30838 10.3168 3.11671 9.36683 3.59171 8.6835C3.87504 8.26683 4.33338 8.05016 4.80004 8.05016C5.10004 8.05016 5.40838 8.14183 5.67504 8.34183C5.73338 8.3835 5.78338 8.4085 5.82504 8.4085C5.87504 8.4085 5.91671 8.3835 5.97504 8.35016C7.00838 7.66683 8.15838 7.3335 9.38339 7.24183L10.3251 7.2085C11.7334 7.29183 13.0501 7.6335 14.2001 8.44183C14.5334 8.1585 14.8917 8.04183 15.2251 8.04183C15.5501 8.04183 15.8501 8.15016 16.0834 8.31683C16.9334 8.95016 16.8834 10.2168 15.9917 10.7668Z" fill="#C9C7C5"/>
</g>
</svg>
