<svg width="20" height="20" viewBox="0 0 20 20" fill="none" xmlns="http://www.w3.org/2000/svg">
<g id="Frame">
<path id="Vector" d="M16.1432 4.14114C16.1464 4.14114 16.1527 4.14114 16.1559 4.14114C16.4158 4.14442 16.606 4.28556 16.6916 4.53829C16.7106 4.59081 16.7232 4.64661 16.7296 4.70241C16.7391 4.76149 16.7391 4.82385 16.7422 4.88293C16.7391 5.00109 16.7201 5.11597 16.6979 5.22757C16.4412 6.47483 16.1844 7.7221 15.9308 8.96933C15.6805 10.1903 15.4301 11.4081 15.1828 12.6291C15.0117 13.4661 14.8405 14.2998 14.6693 15.1368C14.6377 15.291 14.5901 15.4387 14.5077 15.5733C14.3936 15.7571 14.2383 15.8523 14.0481 15.8523C14.0037 15.8523 13.9593 15.8457 13.9087 15.8359C13.7533 15.8031 13.6139 15.744 13.4871 15.6455C12.5552 14.9332 11.6234 14.221 10.6883 13.5087C10.625 13.4595 10.5616 13.4168 10.5013 13.3643C10.4823 13.3479 10.4633 13.3381 10.4475 13.3381C10.4284 13.3381 10.4094 13.3512 10.3872 13.3742C10.1242 13.6401 9.85791 13.9027 9.59166 14.1685C9.35075 14.4081 9.11308 14.6477 8.87216 14.8873C8.74541 15.012 8.60275 15.1007 8.42525 15.1237C8.40308 15.1269 8.38725 15.1269 8.37141 15.1269C8.32066 15.1269 8.31749 15.1039 8.32066 15.0252C8.35866 14.4803 8.39358 13.9354 8.43158 13.3906C8.46333 12.9147 8.495 12.4388 8.52666 11.9628C8.52983 11.8906 8.55208 11.8348 8.60591 11.7856C9.81033 10.663 11.0117 9.53717 12.2129 8.41142C12.8786 7.78774 13.5473 7.16412 14.2129 6.54048C14.2542 6.50437 14.2922 6.46499 14.3302 6.42232C14.3619 6.38622 14.3904 6.34683 14.3651 6.29431C14.3397 6.24507 14.2953 6.23523 14.2478 6.23195C14.2415 6.23195 14.232 6.23195 14.2256 6.23195C14.1876 6.23195 14.1496 6.23851 14.1115 6.24836C14.0417 6.27133 13.9752 6.30087 13.9118 6.34354C12.2319 7.43982 10.5552 8.53283 8.87533 9.62908C8.20972 10.0623 7.54411 10.4956 6.8785 10.9322C6.84363 10.9552 6.80876 10.9682 6.7739 10.9682C6.75171 10.9682 6.72952 10.965 6.70734 10.9552C5.72159 10.6335 4.73268 10.3151 3.74693 9.99675C3.62332 9.95733 3.50605 9.90808 3.40461 9.826C3.21444 9.67508 3.19542 9.48142 3.35707 9.29758C3.48069 9.15975 3.636 9.06783 3.80399 9.00217C4.46326 8.73633 5.1257 8.47375 5.78815 8.20787C6.91653 7.75821 8.04174 7.30525 9.17008 6.85558C10.4982 6.32385 11.8294 5.79541 13.1607 5.26367C14.0417 4.91248 14.9229 4.56127 15.8041 4.20678C15.915 4.16739 16.0259 4.14114 16.1432 4.14114ZM16.1432 2.5C15.8421 2.5 15.5347 2.56237 15.2336 2.68052C14.3524 3.03172 13.4712 3.38622 12.5901 3.73742L10.7771 4.45952L8.60275 5.32604L5.69624 6.48797L5.2208 6.67833L4.82143 6.83917C4.2921 7.04923 3.76278 7.26258 3.23346 7.47593C2.80873 7.64661 2.46959 7.87965 2.19383 8.19147C1.81348 8.62142 1.62647 9.163 1.67402 9.71775C1.72156 10.2724 1.99415 10.7746 2.44423 11.1324C2.75802 11.3818 3.07181 11.5 3.27783 11.5689L4.23822 11.8807C4.90384 12.0973 5.56945 12.3107 6.23506 12.5273C6.41256 12.5864 6.5964 12.616 6.77706 12.616C6.81827 12.616 6.85948 12.616 6.90068 12.6127C6.89117 12.744 6.88483 12.872 6.87532 13.0033L6.8563 13.2888L6.74537 14.9202C6.701 15.57 6.95456 15.9968 7.17644 16.2429C7.48705 16.5875 7.91178 16.7779 8.37458 16.7779C8.46966 16.7779 8.54883 16.7713 8.60591 16.7648C8.96091 16.7221 9.48708 16.5711 9.97833 16.0787C10.1781 15.8786 10.3809 15.6751 10.5806 15.4748L12.5457 16.9748C12.8532 17.2112 13.2082 17.372 13.5948 17.4541C13.747 17.4868 13.8992 17.5 14.0481 17.5C14.7835 17.5 15.4396 17.1192 15.8452 16.4595C16.0196 16.174 16.1432 15.8556 16.2193 15.4847C16.3492 14.8545 16.4792 14.221 16.606 13.5908L16.7327 12.977L16.9642 11.8512L17.484 9.31725L17.915 7.21335L18.251 5.57877C18.2954 5.35558 18.3239 5.1488 18.3302 4.94858L18.3334 4.86324L18.3271 4.78118V4.75821C18.3239 4.69584 18.3207 4.59081 18.3017 4.46608C18.2795 4.31182 18.2415 4.16083 18.1939 4.01313C17.8865 3.09081 17.1162 2.51641 16.1812 2.5H16.1686H16.1432Z" fill="#C9C7C5"/>
</g>
</svg>
