<svg width="20" height="20" viewBox="0 0 20 20" fill="none" xmlns="http://www.w3.org/2000/svg">
<g id="Frame">
<path id="Vector" fill-rule="evenodd" clip-rule="evenodd" d="M12.9133 14.9302L12.8533 14.9468C12.5949 15.0135 12.3408 15.0677 12.0874 15.111C11.7558 15.1743 11.4291 15.2193 11.1099 15.2493C10.3216 15.3235 9.57492 15.3035 8.88325 15.2252C8.58575 15.1918 8.29825 15.1477 8.02242 15.0952C7.73075 15.0385 7.45159 14.9727 7.18575 14.9018L7.12575 14.8852C6.64722 14.7535 6.17624 14.5957 5.71492 14.4127C5.64492 14.3852 5.60742 14.371 5.60409 14.3768C5.60075 14.3827 5.63075 14.4085 5.69575 14.4627L5.72242 14.486C5.87992 14.6177 6.19325 14.881 6.67242 15.3493C6.4316 15.6577 6.18826 15.9641 5.94242 16.2685C5.75325 16.5043 5.62075 16.6668 5.62075 16.6668C2.15159 16.556 0.833252 14.2543 0.833252 14.2543C0.833252 9.1435 3.09325 5.00016 3.09325 5.00016C3.90418 4.38019 4.82061 3.91209 5.79825 3.6185C6.66992 3.36016 7.30492 3.33516 7.46492 3.3335H7.50409C7.50409 3.3585 7.50409 3.38183 7.50242 3.40516C7.49825 3.51183 7.48409 3.6035 7.47159 3.68183C7.44992 3.821 7.43492 3.91933 7.48992 3.986C7.56575 4.07766 7.77659 4.111 8.28909 4.111C9.07659 4.00683 9.94492 4.0335 10.8599 4.06266L11.4599 4.07933C12.2599 4.09933 12.4666 4.0485 12.5074 3.85766C12.5216 3.79016 12.5158 3.70433 12.5074 3.59766C12.5012 3.50973 12.4973 3.42164 12.4958 3.3335H12.5349C12.6933 3.33516 13.3183 3.35933 14.1791 3.61183C14.9541 3.83933 15.9199 4.25183 16.9066 5.00016C16.9066 5.00016 19.1666 9.1435 19.1666 14.2543C19.1666 14.2543 17.8324 16.556 14.3633 16.6668L14.0783 16.3193C13.8258 16.0085 13.5758 15.6958 13.3283 15.381C13.6655 15.065 14.0199 14.7679 14.3899 14.491C14.4274 14.4618 14.4433 14.446 14.4399 14.4377C14.4366 14.4293 14.4099 14.4293 14.3633 14.4293C13.8691 14.6385 13.3866 14.8043 12.9133 14.9302ZM11.7774 13.4735C10.6395 13.6848 9.47184 13.6797 8.33575 13.4585C7.64917 13.322 6.97661 13.1225 6.32659 12.8627L6.32075 12.8602C6.26821 12.8391 6.21514 12.8194 6.16159 12.801H6.15825C6.04621 12.7629 5.93063 12.7361 5.81325 12.721H5.80825C5.54904 12.6893 5.286 12.7188 5.0403 12.8073C4.79459 12.8957 4.57308 13.0407 4.3936 13.2303C4.21412 13.42 4.08168 13.6492 4.00693 13.8994C3.93219 14.1497 3.91723 14.4139 3.96325 14.671C3.59806 14.5304 3.25508 14.3379 2.94492 14.0993C2.7891 13.9798 2.64333 13.8477 2.50909 13.7043C2.58159 11.5993 3.05659 9.68266 3.54242 8.2435C3.7871 7.51761 4.07341 6.80644 4.39992 6.1135C4.99375 5.70571 5.64936 5.39619 6.34159 5.19683C6.71909 5.56266 7.17159 5.6735 7.36492 5.71183C7.66742 5.771 8.00409 5.7785 8.28992 5.7785H8.39992L8.50825 5.7635C9.14992 5.6785 9.84992 5.70016 10.7558 5.72683C10.9658 5.7335 11.1858 5.74016 11.4199 5.746C11.7458 5.75433 12.0799 5.75433 12.3708 5.7185C12.5758 5.6935 13.1324 5.616 13.5941 5.1785C14.1483 5.3285 14.8558 5.60516 15.6024 6.1135L15.7416 6.41433C15.9349 6.84016 16.1958 7.466 16.4583 8.2435C16.9433 9.68183 17.4183 11.5968 17.4916 13.7002C17.3816 13.8168 17.2358 13.9552 17.0516 14.0968C16.7589 14.3206 16.4374 14.5039 16.0958 14.6418C16.1494 14.206 16.0295 13.7666 15.7619 13.4185C15.4944 13.0703 15.1007 12.8414 14.6658 12.781H14.6616C14.5878 12.7705 14.5135 12.7644 14.4391 12.7627H14.0249L13.7124 12.8952C13.1013 13.1596 12.4614 13.352 11.8058 13.4685L11.7916 13.471L11.7774 13.4735ZM7.32742 8.3335C6.49159 8.3335 5.83325 9.0835 5.83325 10.0002C5.83325 10.9168 6.50659 11.6668 7.32742 11.6668C8.16159 11.6668 8.82075 10.9168 8.82075 10.0002C8.83575 9.0835 8.16242 8.3335 7.32742 8.3335ZM12.6724 8.3335C11.8383 8.3335 11.1791 9.0835 11.1791 10.0002C11.1791 10.9168 11.8524 11.6668 12.6724 11.6668C13.5083 11.6668 14.1666 10.9168 14.1666 10.0002C14.1666 9.0835 13.5083 8.3335 12.6724 8.3335Z" fill="#C9C7C5"/>
</g>
</svg>
