<svg width="20" height="20" viewBox="0 0 20 20" fill="none" xmlns="http://www.w3.org/2000/svg">
<g id="Frame">
<path id="Vector" fill-rule="evenodd" clip-rule="evenodd" d="M17.6 3.7565L18.7784 3.894L18.2484 4.9565L17.4725 6.51067C17.4348 6.62859 17.3794 6.74012 17.3084 6.8415C17.275 6.894 17.1609 7.05984 17.1559 7.06817C17.1317 7.1037 17.1089 7.14012 17.0875 7.17734V9.16817C17.0875 14.2607 12.1584 17.4973 7.50335 17.4973C6.55085 17.4973 5.82668 17.4523 4.99835 17.2715C3.63419 16.974 2.61919 16.3823 2.15502 15.3482L1.67669 14.284L2.83919 14.1765C3.89002 14.0798 4.80169 13.8798 5.50169 13.6115C3.58002 13.3032 2.50335 12.459 2.50335 10.874V10.0407H3.33669C3.52002 10.0407 3.68419 10.0257 3.83252 9.999C2.39002 9.13567 1.66669 7.75234 1.66669 5.834V5.664C1.66085 4.69734 1.71252 4.18067 1.97752 3.5215C2.14752 3.09817 2.39252 2.70734 2.72252 2.349L3.35252 1.6665L3.96335 2.36484C5.97835 4.66817 7.97002 6.06484 10.0034 6.234C10.0117 4.109 11.6184 2.50067 13.7534 2.50067C14.7492 2.50067 15.6525 2.879 16.3617 3.56067C16.7509 3.64067 17.1634 3.70567 17.5992 3.7565H17.6ZM15.7575 5.13484L15.5017 5.0765L15.325 4.88317C14.8984 4.41567 14.3634 4.16817 13.7534 4.16817C12.5342 4.16817 11.67 5.0365 11.67 6.2515C11.67 6.44984 11.665 6.574 11.64 6.73817C11.5417 7.39234 11.175 7.91817 10.42 7.91817C7.92168 7.91817 5.66752 6.579 3.47002 4.29317C3.35669 4.63817 3.33002 4.9915 3.33335 5.65567L3.33419 5.83484C3.33419 7.5415 4.02585 8.47484 5.66252 8.99484L6.24418 9.17984V9.789C6.24418 10.5282 5.54418 11.224 4.51919 11.5357C4.98835 11.8923 5.94918 12.0848 7.50252 12.0848H8.33585V12.9182C8.33585 14.1115 6.96502 15.0465 4.89252 15.5348C5.56752 15.7415 6.46752 15.8307 7.50335 15.8307C11.3484 15.8307 15.42 13.1573 15.42 9.16817V7.08484C15.42 6.83984 15.4917 6.6265 15.6092 6.4065C15.655 6.31984 15.7059 6.23734 15.7684 6.14317C15.7809 6.1265 15.8242 6.0615 15.8592 6.00984L15.9259 5.87817L16.2459 5.2365C16.0792 5.20484 15.9167 5.17067 15.7575 5.13484Z" fill="#C9C7C5"/>
</g>
</svg>
